#Comment line ignore any data following # character 
#Hierarchical Translation and Rotation (.htr) file 
[Header]	
#Header keywords are followed by a single value 
FileType HTR		#Single word string
DataType HTRS		#Translation followed by rotation and scale data
FileVersion 1		#integer
NumSegments 84		#integer
NumFrames 2		#integer
DataFrameRate 30		#integer, data frame rate in this file
EulerRotationOrder ZYX
CalibrationUnits mm
RotationUnits Degrees
GlobalAxisofGravity Y
BoneLengthAxis Y
ScaleFactor 1.00
[SegmentNames&Hierarchy]
#CHILD	PARENT
MASTER GLOBAL
root MASTER
chest root
L_mid_tent01 root
R_mid_tent01 root
spine01 root
Bip01_Neck chest
L_humerus chest
R_humerus chest
weapon_bone chest
Bip01_Head Bip01_Neck
eye_left_bone Bip01_Head
eye_right_bone Bip01_Head
L_forearm L_humerus
L_front_hand L_forearm
L_weapon_bone L_forearm
L_front_hand01_01 L_front_hand
L_front_hand02_01 L_front_hand
L_front_hand03_01 L_front_hand
L_front_hand01_02 L_front_hand01_01
L_front_hand02_02 L_front_hand02_01
L_front_hand03_02 L_front_hand03_01
R_forearm R_humerus
R_front_hand R_forearm
R_weapon_bone R_forearm
R_front_hand01_01 R_front_hand
R_front_hand02_01 R_front_hand
R_front_hand03_01 R_front_hand
R_front_hand01_02 R_front_hand01_01
R_front_hand02_02 R_front_hand02_01
R_front_hand03_02 R_front_hand03_01
null_rope01_connect L_mid_tent01
Rope1_Seg01 null_rope01_connect
Rope1_Seg02 Rope1_Seg01
Rope1_Seg03 Rope1_Seg02
Rope1_Seg04 Rope1_Seg03
Rope1_Seg05 Rope1_Seg04
Rope1_Seg06 Rope1_Seg05
Rope1_Seg07 Rope1_Seg06
Rope1_Seg09 Rope1_Seg07
L_mid_hand01 Rope1_Seg09
L_mid_hand02 Rope1_Seg09
L_mid_hand03 Rope1_Seg09
null_rope02_connect R_mid_tent01
Rope2_Seg01 null_rope02_connect
Rope2_Seg02 Rope2_Seg01
Rope2_Seg03 Rope2_Seg02
Rope2_Seg04 Rope2_Seg03
Rope2_Seg05 Rope2_Seg04
Rope2_Seg06 Rope2_Seg05
Rope2_Seg07 Rope2_Seg06
Rope2_Seg09 Rope2_Seg07
R_mid_hand01 Rope2_Seg09
R_mid_hand02 Rope2_Seg09
R_mid_hand03 Rope2_Seg09
spine02 spine01
spine03 spine02
pelvis spine03
null_rope03_connect pelvis
null_rope04_connect pelvis
Rope3_Seg01 null_rope03_connect
Rope3_Seg02 Rope3_Seg01
Rope3_Seg03 Rope3_Seg02
Rope3_Seg04 Rope3_Seg03
Rope3_Seg05 Rope3_Seg04
Rope3_Seg06 Rope3_Seg05
Rope3_Seg07 Rope3_Seg06
Rope3_Seg08 Rope3_Seg07
Rope3_Seg09 Rope3_Seg08
R_rear_hand01 Rope3_Seg09
R_rear_hand02 Rope3_Seg09
R_rear_hand03 Rope3_Seg09
Rope4_Seg01 null_rope04_connect
Rope4_Seg02 Rope4_Seg01
Rope4_Seg03 Rope4_Seg02
Rope4_Seg04 Rope4_Seg03
Rope4_Seg05 Rope4_Seg04
Rope4_Seg06 Rope4_Seg05
Rope4_Seg07 Rope4_Seg06
Rope4_Seg08 Rope4_Seg07
Rope4_Seg09 Rope4_Seg08
L_rear_hand01 Rope4_Seg09
L_rear_hand02 Rope4_Seg09
L_rear_hand03 Rope4_Seg09
[BasePosition]
#SegmentName Tx, Ty, Tz, Rx, Ry, Rz, BoneLength
MASTER 0.000000 0.000000 0.000000 -90.000000 0.000000 0.000000 10.000000 
root 0.000000 0.000000 0.000000 0.000000 0.000000 0.000000 10.000000 
chest 0.000000 0.000000 0.000000 0.000000 0.000000 0.000000 10.000000 
L_mid_tent01 0.000000 0.000000 0.000000 0.000000 0.000000 0.000000 10.000000 
R_mid_tent01 0.000000 0.000000 0.000000 0.000000 0.000000 0.000000 10.000000 
spine01 0.000000 0.000000 0.000000 0.000000 0.000000 0.000000 10.000000 
Bip01_Neck 0.000000 0.000000 0.000000 0.000000 0.000000 0.000000 10.000000 
L_humerus 0.000000 0.000000 0.000000 0.000000 0.000000 0.000000 10.000000 
R_humerus 0.000000 0.000000 0.000000 0.000000 0.000000 0.000000 10.000000 
weapon_bone 0.000000 0.000000 0.000000 0.000000 0.000000 0.000000 10.000000 
Bip01_Head 0.000000 0.000000 0.000000 0.000000 0.000000 0.000000 10.000000 
eye_left_bone 0.000000 0.000000 0.000000 0.000000 0.000000 0.000000 10.000000 
eye_right_bone 0.000000 0.000000 0.000000 0.000000 0.000000 0.000000 10.000000 
L_forearm 0.000000 0.000000 0.000000 0.000000 0.000000 0.000000 10.000000 
L_front_hand 0.000000 0.000000 0.000000 0.000000 0.000000 0.000000 10.000000 
L_weapon_bone 0.000000 0.000000 0.000000 0.000000 0.000000 0.000000 10.000000 
L_front_hand01_01 0.000000 0.000000 0.000000 0.000000 0.000000 0.000000 10.000000 
L_front_hand02_01 0.000000 0.000000 0.000000 0.000000 0.000000 0.000000 10.000000 
L_front_hand03_01 0.000000 0.000000 0.000000 0.000000 0.000000 0.000000 10.000000 
L_front_hand01_02 0.000000 0.000000 0.000000 0.000000 0.000000 0.000000 10.000000 
L_front_hand02_02 0.000000 0.000000 0.000000 0.000000 0.000000 0.000000 10.000000 
L_front_hand03_02 0.000000 0.000000 0.000000 0.000000 0.000000 0.000000 10.000000 
R_forearm 0.000000 0.000000 0.000000 0.000000 0.000000 0.000000 10.000000 
R_front_hand 0.000000 0.000000 0.000000 0.000000 0.000000 0.000000 10.000000 
R_weapon_bone 0.000000 0.000000 0.000000 0.000000 0.000000 0.000000 10.000000 
R_front_hand01_01 0.000000 0.000000 0.000000 0.000000 0.000000 0.000000 10.000000 
R_front_hand02_01 0.000000 0.000000 0.000000 0.000000 0.000000 0.000000 10.000000 
R_front_hand03_01 0.000000 0.000000 0.000000 0.000000 0.000000 0.000000 10.000000 
R_front_hand01_02 0.000000 0.000000 0.000000 0.000000 0.000000 0.000000 10.000000 
R_front_hand02_02 0.000000 0.000000 0.000000 0.000000 0.000000 0.000000 10.000000 
R_front_hand03_02 0.000000 0.000000 0.000000 0.000000 0.000000 0.000000 10.000000 
null_rope01_connect 0.000000 0.000000 0.000000 0.000000 0.000000 0.000000 10.000000 
Rope1_Seg01 0.000000 0.000000 0.000000 0.000000 0.000000 0.000000 10.000000 
Rope1_Seg02 0.000000 0.000000 0.000000 0.000000 0.000000 0.000000 10.000000 
Rope1_Seg03 0.000000 0.000000 0.000000 0.000000 0.000000 0.000000 10.000000 
Rope1_Seg04 0.000000 0.000000 0.000000 0.000000 0.000000 0.000000 10.000000 
Rope1_Seg05 0.000000 0.000000 0.000000 0.000000 0.000000 0.000000 10.000000 
Rope1_Seg06 0.000000 0.000000 0.000000 0.000000 0.000000 0.000000 10.000000 
Rope1_Seg07 0.000000 0.000000 0.000000 0.000000 0.000000 0.000000 10.000000 
Rope1_Seg09 0.000000 0.000000 0.000000 0.000000 0.000000 0.000000 10.000000 
L_mid_hand01 0.000000 0.000000 0.000000 0.000000 0.000000 0.000000 10.000000 
L_mid_hand02 0.000000 0.000000 0.000000 0.000000 0.000000 0.000000 10.000000 
L_mid_hand03 0.000000 0.000000 0.000000 0.000000 0.000000 0.000000 10.000000 
null_rope02_connect 0.000000 0.000000 0.000000 0.000000 0.000000 0.000000 10.000000 
Rope2_Seg01 0.000000 0.000000 0.000000 0.000000 0.000000 0.000000 10.000000 
Rope2_Seg02 0.000000 0.000000 0.000000 0.000000 0.000000 0.000000 10.000000 
Rope2_Seg03 0.000000 0.000000 0.000000 0.000000 0.000000 0.000000 10.000000 
Rope2_Seg04 0.000000 0.000000 0.000000 0.000000 0.000000 0.000000 10.000000 
Rope2_Seg05 0.000000 0.000000 0.000000 0.000000 0.000000 0.000000 10.000000 
Rope2_Seg06 0.000000 0.000000 0.000000 0.000000 0.000000 0.000000 10.000000 
Rope2_Seg07 0.000000 0.000000 0.000000 0.000000 0.000000 0.000000 10.000000 
Rope2_Seg09 0.000000 0.000000 0.000000 0.000000 0.000000 0.000000 10.000000 
R_mid_hand01 0.000000 0.000000 0.000000 0.000000 0.000000 0.000000 10.000000 
R_mid_hand02 0.000000 0.000000 0.000000 0.000000 0.000000 0.000000 10.000000 
R_mid_hand03 0.000000 0.000000 0.000000 0.000000 0.000000 0.000000 10.000000 
spine02 0.000000 0.000000 0.000000 0.000000 0.000000 0.000000 10.000000 
spine03 0.000000 0.000000 0.000000 0.000000 0.000000 0.000000 10.000000 
pelvis 0.000000 0.000000 0.000000 0.000000 0.000000 0.000000 10.000000 
null_rope03_connect 0.000000 0.000000 0.000000 0.000000 0.000000 0.000000 10.000000 
null_rope04_connect 0.000000 0.000000 0.000000 0.000000 0.000000 0.000000 10.000000 
Rope3_Seg01 0.000000 0.000000 0.000000 0.000000 0.000000 0.000000 10.000000 
Rope3_Seg02 0.000000 0.000000 0.000000 0.000000 0.000000 0.000000 10.000000 
Rope3_Seg03 0.000000 0.000000 0.000000 0.000000 0.000000 0.000000 10.000000 
Rope3_Seg04 0.000000 0.000000 0.000000 0.000000 0.000000 0.000000 10.000000 
Rope3_Seg05 0.000000 0.000000 0.000000 0.000000 0.000000 0.000000 10.000000 
Rope3_Seg06 0.000000 0.000000 0.000000 0.000000 0.000000 0.000000 10.000000 
Rope3_Seg07 0.000000 0.000000 0.000000 0.000000 0.000000 0.000000 10.000000 
Rope3_Seg08 0.000000 0.000000 0.000000 0.000000 0.000000 0.000000 10.000000 
Rope3_Seg09 0.000000 0.000000 0.000000 0.000000 0.000000 0.000000 10.000000 
R_rear_hand01 0.000000 0.000000 0.000000 0.000000 0.000000 0.000000 10.000000 
R_rear_hand02 0.000000 0.000000 0.000000 0.000000 0.000000 0.000000 10.000000 
R_rear_hand03 0.000000 0.000000 0.000000 0.000000 0.000000 0.000000 10.000000 
Rope4_Seg01 0.000000 0.000000 0.000000 0.000000 0.000000 0.000000 10.000000 
Rope4_Seg02 0.000000 0.000000 0.000000 0.000000 0.000000 0.000000 10.000000 
Rope4_Seg03 0.000000 0.000000 0.000000 0.000000 0.000000 0.000000 10.000000 
Rope4_Seg04 0.000000 0.000000 0.000000 0.000000 0.000000 0.000000 10.000000 
Rope4_Seg05 0.000000 0.000000 0.000000 0.000000 0.000000 0.000000 10.000000 
Rope4_Seg06 0.000000 0.000000 0.000000 0.000000 0.000000 0.000000 10.000000 
Rope4_Seg07 0.000000 0.000000 0.000000 0.000000 0.000000 0.000000 10.000000 
Rope4_Seg08 0.000000 0.000000 0.000000 0.000000 0.000000 0.000000 10.000000 
Rope4_Seg09 0.000000 0.000000 0.000000 0.000000 0.000000 0.000000 10.000000 
L_rear_hand01 0.000000 0.000000 0.000000 0.000000 0.000000 0.000000 10.000000 
L_rear_hand02 0.000000 0.000000 0.000000 0.000000 0.000000 0.000000 10.000000 
L_rear_hand03 0.000000 0.000000 0.000000 0.000000 0.000000 0.000000 10.000000 
#Beginning of Data. Separated by tabs
#Fr	Tx	Ty	Tz	Rx	Ry	Rz	SF
[MASTER]
35 -0.000930 6176.188965 1709.927856 0.001660 0.001660 0.001660 6408.522949
36 -0.000944 6268.370117 1687.072876 0.001660 0.001660 0.001660 6491.431152
[root]
35 -156.615784 -75.305771 1330.575317 -84.314125 -27.970537 -90.207787 1341.875610
36 -105.167725 -74.508629 1398.307617 -87.055122 -30.908699 -90.126701 1404.234985
[chest]
35 -84.512650 -34.090519 0.000000 15.534555 1.068025 150.647995 91.129311
36 -84.512650 -34.090519 0.000000 14.158872 0.212858 158.473206 91.129311
[L_mid_tent01]
35 27.299168 22.179478 -249.918701 -14.299045 26.521477 37.909065 252.381729
36 27.299171 22.179487 -249.918701 -15.505607 24.870024 34.547901 252.381729
[R_mid_tent01]
35 23.228794 24.509907 226.238495 177.429626 -26.870529 57.201687 228.744751
36 23.228794 24.509907 226.238495 179.966354 -26.281107 52.739182 228.744751
[spine01]
35 -0.361383 -0.195265 0.000000 0.001949 0.001309 22.233267 0.410763
36 -0.361383 -0.195265 0.000000 0.001948 0.001309 22.200512 0.410763
[Bip01_Neck]
35 165.484543 71.581718 0.000119 176.643677 -1.657967 43.431911 180.302734
36 165.484543 71.581718 0.000119 176.643677 -1.657967 43.431911 180.302734
[L_humerus]
35 -13.983130 -135.272980 -120.471481 156.317291 70.210121 -112.010330 181.680161
36 -13.983130 -135.272980 -120.471481 151.437073 75.026627 -117.154892 181.680161
[R_humerus]
35 -13.983309 -135.273102 125.287651 -172.382263 -66.903938 -92.554008 184.909012
36 -13.983309 -135.273102 125.287651 -173.418045 -71.385582 -91.510551 184.909012
[weapon_bone]
35 235.964890 -300.705902 0.000000 0.000000 -89.951546 -128.212341 382.234833
36 235.964890 -300.705902 0.000000 0.000000 -89.951546 -128.212341 382.234833
[Bip01_Head]
35 213.442047 185.722397 11.689544 5.200446 6.151311 -43.834991 283.173035
36 213.442307 185.721527 11.700467 5.200446 6.151311 -43.834991 283.173126
[eye_left_bone]
35 -24.626970 125.451866 -64.772606 0.000000 -90.000000 -99.840431 143.318359
36 -24.626970 125.451866 -64.772606 0.000000 -90.000000 -99.840431 143.318359
[eye_right_bone]
35 -24.626970 125.451866 64.327362 0.000000 -89.965736 80.156380 143.117676
36 -24.626970 125.451866 64.327362 0.000000 -89.965736 80.156380 143.117676
[L_forearm]
35 322.776093 0.000000 -0.000119 0.000326 -0.002325 -105.970001 322.776093
36 322.776093 0.000000 -0.000119 0.000336 -0.002323 -106.440025 322.776093
[L_front_hand]
35 241.149185 -0.042021 -3.300071 84.862732 -1.838125 -27.424093 241.171753
36 241.149185 -0.042021 -3.300071 117.231033 -1.837002 -27.422043 241.171753
[L_weapon_bone]
35 156.183838 0.000000 0.000000 0.000014 0.000007 0.000001 156.183838
36 156.183838 0.000000 0.000000 0.000014 0.000007 0.000001 156.183838
[L_front_hand01_01]
35 86.095154 20.947098 -0.655860 0.396573 -0.451235 -3.531671 88.609184
36 86.095154 20.947098 -0.655860 0.369276 -0.471860 -0.395424 88.609184
[L_front_hand02_01]
35 86.935165 -11.437475 24.513514 116.931709 2.659504 0.999012 91.046425
36 86.935165 -11.437475 24.513514 116.901077 -0.137258 -0.418780 91.046425
[L_front_hand03_01]
35 86.637497 -14.123976 -20.424902 -118.383858 -3.701139 -0.673391 90.126129
36 86.637497 -14.123976 -20.424902 -118.323837 -0.940959 -2.161324 90.126129
[L_front_hand01_02]
35 71.020905 -0.000179 0.000030 0.001450 0.001846 -13.681149 71.020905
36 71.020905 -0.000179 0.000030 0.001238 0.001994 -26.317873 71.020905
[L_front_hand02_02]
35 71.020927 -0.000119 0.000060 0.001450 0.001846 -13.681149 71.020927
36 71.020927 -0.000119 0.000060 0.001238 0.001994 -26.317873 71.020927
[L_front_hand03_02]
35 71.020905 -0.000060 0.000060 0.001450 0.001846 -13.681149 71.020905
36 71.020905 -0.000060 0.000060 0.001238 0.001994 -26.317873 71.020905
[R_forearm]
35 322.776428 -0.000060 0.000030 0.208782 0.049054 -104.596107 322.776428
36 322.776428 -0.000060 0.000030 0.207276 0.050907 -105.062752 322.776428
[R_front_hand]
35 238.847015 -0.006795 2.210259 64.369797 -10.642595 -26.314331 238.857239
36 238.847015 -0.006795 2.210259 27.744953 -10.643394 -26.315783 238.857239
[R_weapon_bone]
35 155.664093 0.002503 -0.000030 0.003487 0.001180 -90.988930 155.664078
36 155.664093 0.002503 -0.000030 0.003487 0.001180 -90.988930 155.664078
[R_front_hand01_01]
35 87.624611 14.231146 22.918642 -116.926704 2.169774 -0.645367 91.683487
36 87.624611 14.231146 22.918642 -116.916649 -1.486356 1.208044 91.683487
[R_front_hand02_01]
35 89.356956 14.367283 -19.491137 118.377480 -2.946031 1.321497 92.579636
36 89.356956 14.367283 -19.491137 118.336418 0.664886 3.269011 92.579636
[R_front_hand03_01]
35 87.286232 -22.307278 -0.143439 -0.385047 -0.241429 2.742586 90.091743
36 87.286232 -22.307278 -0.143439 -0.366098 -0.269766 -1.357700 90.091743
[R_front_hand01_02]
35 71.020905 0.000060 0.000119 0.001865 0.001425 15.210068 71.020905
36 71.020905 0.000060 0.000119 0.002048 0.001147 31.490393 71.020905
[R_front_hand02_02]
35 71.020844 -0.000030 -0.000119 0.001865 0.001425 15.210068 71.020836
36 71.020844 -0.000030 -0.000119 0.002048 0.001147 31.490393 71.020836
[R_front_hand03_02]
35 71.020905 0.000000 0.000030 0.001865 0.001425 15.210068 71.020905
36 71.020905 0.000000 0.000030 0.002048 0.001147 31.490393 71.020905
[null_rope01_connect]
35 328.732483 0.000000 -0.000238 -124.788292 -65.120293 -159.132614 328.732483
36 328.732483 0.000000 -0.000238 -124.684669 -63.565552 -152.692657 328.732483
[Rope1_Seg01]
35 0.000038 -0.000501 0.000029 120.009293 66.024658 141.056015 0.000504
36 0.000038 -0.000515 0.000025 125.807930 67.718918 146.953522 0.000517
[Rope1_Seg02]
35 139.999863 -0.000179 0.000000 -0.134229 3.130103 -3.342070 139.999863
36 139.999863 -0.000179 0.000000 -0.381334 4.032970 -3.704224 139.999863
[Rope1_Seg03]
35 139.999924 0.000060 -0.000060 -0.329635 4.983566 -5.331330 139.999924
36 139.999924 0.000060 -0.000060 -1.077904 7.192438 -6.586376 139.999924
[Rope1_Seg04]
35 139.999924 -0.000060 -0.000119 -2.532718 12.549979 -12.573082 139.999924
36 139.999924 -0.000060 -0.000119 -13.534363 23.327721 -20.963284 139.999924
[Rope1_Seg05]
35 139.999832 0.000119 -0.000060 -8.746870 19.393934 -20.980894 139.999832
36 139.999832 0.000119 -0.000060 -116.464272 21.316700 -15.970728 139.999832
[Rope1_Seg06]
35 139.999954 0.000119 -0.000060 14.691547 -13.702703 4.502063 139.999954
36 139.999954 0.000119 -0.000060 128.965424 1.540394 -21.899086 139.999954
[Rope1_Seg07]
35 139.999985 0.000060 0.000000 3.202174 -5.092185 2.647768 139.999985
36 139.999985 0.000060 0.000000 5.151587 -5.103312 2.487844 139.999985
[Rope1_Seg09]
35 121.602913 0.000119 -0.000089 -89.793175 -1.359789 0.847147 121.602913
36 121.602913 0.000119 -0.000089 -89.793175 -1.359789 0.847147 121.602913
[L_mid_hand01]
35 103.859421 1.038730 8.195221 130.544373 -67.584534 -38.866943 104.187431
36 103.859421 1.038730 8.195221 130.544373 -67.584534 -38.866943 104.187431
[L_mid_hand02]
35 105.572853 -4.139662 -10.864139 -168.923172 43.409309 -73.498894 106.211075
36 105.572853 -4.139662 -10.864139 -168.923172 43.409309 -73.498886 106.211075
[L_mid_hand03]
35 104.641464 17.579376 -3.913581 -6.012625 17.808174 74.893669 106.179977
36 104.641464 17.579376 -3.913581 -6.012627 17.808174 74.893669 106.179977
[null_rope02_connect]
35 328.732849 0.000179 -0.000119 -119.620010 58.563053 -1.887406 328.732849
36 328.732849 0.000179 -0.000119 -115.161774 61.440605 -3.773266 328.732849
[Rope2_Seg01]
35 0.000069 0.000029 0.000000 -91.993851 55.759525 5.132489 0.000075
36 0.000070 0.000025 0.000000 -104.494102 56.993755 -5.505231 0.000074
[Rope2_Seg02]
35 139.999741 -0.000060 -0.000119 -2.598906 7.124952 -0.219646 139.999756
36 139.999741 -0.000060 -0.000119 -3.917795 9.192622 -0.541780 139.999756
[Rope2_Seg03]
35 140.000107 0.000030 0.000000 -4.239859 9.866016 -0.990368 140.000107
36 140.000107 0.000030 0.000000 -7.125634 13.839511 -2.561330 140.000107
[Rope2_Seg04]
35 139.999802 0.000000 -0.000060 -6.243088 16.076502 -5.183474 139.999802
36 139.999802 0.000000 -0.000060 -25.794773 15.644799 -1.467057 139.999802
[Rope2_Seg05]
35 139.999985 -0.000060 0.000119 -23.473120 -4.113228 16.176630 139.999985
36 139.999985 -0.000060 0.000119 -14.816002 -18.859432 17.734507 139.999985
[Rope2_Seg06]
35 139.999893 -0.000030 -0.000119 -8.621814 -23.147196 18.294546 139.999893
36 139.999893 -0.000030 -0.000119 -3.409946 -23.575691 12.526205 139.999893
[Rope2_Seg07]
35 139.999893 0.000060 -0.000060 -2.048885 -10.265972 8.128347 139.999893
36 139.999893 0.000060 -0.000060 -1.150563 -10.828481 6.428328 139.999893
[Rope2_Seg09]
35 121.338966 0.000089 -0.000060 33.793236 -1.359788 -0.847141 121.338966
36 121.338966 0.000089 -0.000060 33.793236 -1.359788 -0.847141 121.338966
[R_mid_hand01]
35 104.680779 11.144459 -10.335981 -16.212059 45.237240 70.462852 105.778534
36 104.680779 11.144459 -10.335981 -16.212063 45.237247 70.462852 105.778534
[R_mid_hand02]
35 104.070427 2.443552 8.231699 49.067368 -67.749771 39.286453 104.424065
36 104.070427 2.443552 8.231699 49.067368 -67.749771 39.286453 104.424065
[R_mid_hand03]
35 106.028137 -11.221827 -5.996406 -177.101105 15.551029 -76.585594 106.788818
36 106.028137 -11.221827 -5.996406 -177.101105 15.551026 -76.585571 106.788818
[spine02]
35 129.756927 0.001550 0.000119 0.005518 -4.061593 -7.930511 129.756927
36 129.756927 0.001550 0.000119 0.054802 -4.062024 -8.619317 129.756927
[spine03]
35 78.613922 0.081540 -4.899017 1.688070 3.928161 13.372965 78.766457
36 78.613922 0.081533 -4.899018 1.716497 3.915374 13.789245 78.766457
[pelvis]
35 169.435242 0.051022 0.000000 -0.040808 -0.186411 7.809838 169.435257
36 169.435242 0.051022 0.000000 -0.042026 -0.183627 8.674875 169.435257
[null_rope03_connect]
35 -1.257226 -2.466202 137.391083 24.903975 -83.650406 57.613823 137.418976
36 -1.257226 -2.466202 137.391083 26.722206 -86.308319 58.167919 137.418976
[null_rope04_connect]
35 -1.259640 -2.480268 -137.844437 24.903975 -83.650406 57.613823 137.872513
36 -1.259640 -2.480268 -137.844437 26.722206 -86.308319 58.167919 137.872513
[Rope3_Seg01]
35 0.000015 -0.000501 0.000000 -130.589935 -0.430210 -80.486229 0.000502
36 0.000013 -0.000515 0.000000 -130.417892 -1.452056 -83.543594 0.000515
[Rope3_Seg02]
35 139.999924 -0.000119 0.000060 6.690231 -20.957619 -31.455360 139.999924
36 139.999924 -0.000119 0.000060 4.810273 -18.838257 -24.359259 139.999924
[Rope3_Seg03]
35 139.999924 -0.000119 0.000119 -112.906052 -23.117346 -56.941162 139.999924
36 139.999924 -0.000119 0.000119 -16.858057 -26.540899 -57.645546 139.999924
[Rope3_Seg04]
35 139.999924 0.000119 0.000000 -38.726093 14.014204 -0.115440 139.999924
36 139.999924 0.000119 0.000000 -151.645721 -3.498749 -16.016899 139.999924
[Rope3_Seg05]
35 139.999924 -0.000238 0.000060 -71.067894 4.395664 -19.560606 139.999924
36 139.999924 -0.000238 0.000060 -104.260941 10.223198 -28.804434 139.999924
[Rope3_Seg06]
35 139.999893 -0.000119 -0.000060 -52.811649 36.656609 -10.233969 139.999893
36 139.999893 -0.000119 -0.000060 -9.123901 25.495682 15.698486 139.999893
[Rope3_Seg07]
35 139.999771 0.000060 -0.000119 -1.261114 10.601354 9.412799 139.999771
36 139.999771 0.000060 -0.000119 0.096269 6.406265 7.179311 139.999771
[Rope3_Seg08]
35 139.999985 -0.000060 0.000000 0.038638 4.738272 4.602953 139.999985
36 139.999985 -0.000060 0.000000 0.354247 3.266446 3.683582 139.999985
[Rope3_Seg09]
35 90.185997 -0.000179 -0.000060 89.793228 -1.359877 -0.847183 90.185997
36 90.185997 -0.000179 -0.000060 89.793228 -1.359877 -0.847183 90.185997
[R_rear_hand01]
35 103.366196 -6.073594 -10.757982 -177.714203 24.565960 -73.910950 104.101845
36 103.366196 -6.073594 -10.757982 -177.714203 24.565960 -73.910950 104.101845
[R_rear_hand02]
35 100.509819 12.039542 -7.992327 -12.874829 36.868488 72.167213 101.543350
36 100.509819 12.039542 -7.992327 -12.874829 36.868488 72.167213 101.543350
[R_rear_hand03]
35 101.539970 5.215704 5.435467 71.484573 -71.816628 21.513819 101.819031
36 101.539970 5.215704 5.435467 71.484581 -71.816628 21.513813 101.819031
[Rope4_Seg01]
35 -0.000010 -0.000487 -0.000029 85.091248 -34.074997 -156.295761 0.000488
36 -0.000010 -0.000502 -0.000025 86.899063 -35.077415 -156.879028 0.000503
[Rope4_Seg02]
35 139.999985 0.000060 0.000119 -6.900004 -2.699534 -6.276834 139.999985
36 139.999985 0.000060 0.000119 -6.393547 -2.659601 -5.902290 139.999985
[Rope4_Seg03]
35 139.999924 0.000000 -0.000238 -15.420749 -2.908131 -10.033001 139.999924
36 139.999924 0.000000 -0.000238 -14.497915 -3.058502 -9.601383 139.999924
[Rope4_Seg04]
35 139.999985 0.000000 0.000119 -22.943542 2.186883 -10.859136 139.999985
36 139.999985 0.000000 0.000119 -20.829773 1.399300 -9.892177 139.999985
[Rope4_Seg05]
35 139.999802 -0.000060 -0.000119 -44.663013 7.621666 -23.264336 139.999802
36 139.999802 -0.000060 -0.000119 -56.497112 6.709732 -30.248360 139.999802
[Rope4_Seg06]
35 139.999924 0.000000 0.000060 -37.028053 31.326185 -28.000662 139.999924
36 139.999924 0.000000 0.000060 -29.052620 34.946266 -21.115860 139.999924
[Rope4_Seg07]
35 139.999802 0.000000 0.000000 -3.248729 15.721509 -2.165149 139.999802
36 139.999802 0.000000 0.000000 -1.817590 12.677866 -0.787520 139.999802
[Rope4_Seg08]
35 139.999924 0.000000 0.000119 -2.040335 6.131204 -0.394921 139.999924
36 139.999924 0.000000 0.000119 -1.857069 5.338245 -0.149294 139.999924
[Rope4_Seg09]
35 90.185791 0.000060 0.000060 -135.617828 2.228885 0.850567 90.185791
36 90.185791 0.000060 0.000060 -135.617828 2.228885 0.850567 90.185791
[L_rear_hand01]
35 101.696655 -8.392275 -7.654577 -12.874829 -36.868488 107.832764 102.329041
36 101.696655 -8.392275 -7.654577 -12.874829 -36.868488 107.832764 102.329041
[L_rear_hand02]
35 102.726799 -1.568258 5.773216 71.484581 71.816628 158.486160 102.900848
36 102.726799 -1.568258 5.773216 71.484581 71.816628 158.486160 102.900848
[L_rear_hand03]
35 104.552910 9.721220 -10.420293 -177.714203 -24.565960 -106.089035 105.519653
36 104.552910 9.721220 -10.420293 -177.714203 -24.565960 -106.089035 105.519653
